# xmcd CD database file
#
# Track frame offsets:
#	150
#	11075
#	25822
#	40270
#	54965
#	70197
#	83542
#	96602
#	111107
#	123500
#	136727
#	152002
#	167152
#	181557
#	195357
#	210117
#	222900
#	237620
#	252512
#	266625
#	279860
#	293192
#	307487
#	320455
#
# Disc length: 4460 seconds
#
# Revision: 2
# Processed by: cddbd v1.4PL0 Copyright (c) Steve Scherf et al.
# Submitted via: CDex 1.50beta10
#
DISCID=54116a18
DTITLE=Billie Holiday - The Billie Holiday Story
DYEAR=1972
DGENRE=Jazz
TTITLE0=Them There Eyes
TTITLE1=Lover Man
TTITLE2=Easy Living
TTITLE3=Baby Get Lost
TTITLE4=You're My Thrill
TTITLE5=There Is No Greater Love
TTITLE6=That Ole Devil Called Love
TTITLE7=I'll Look Around
TTITLE8=A Pigfoot And A Bottle Of Beer
TTITLE9=My Man
TTITLE10=Don't Explain
TTITLE11=Ain't Nobody's Business If I Do
TTITLE12=Deep Song
TTITLE13=Crazy He Calls Me
TTITLE14=Keeps On Raining
TTITLE15=No More
TTITLE16=Do Your Duty
TTITLE17=Now Or Never
TTITLE18=Good Morning Heartache
TTITLE19=Somebody's On My Mind
TTITLE20=Porgy
TTITLE21=Solitude
TTITLE22=This Is Heaven To Me
TTITLE23=God Bless The Child
EXTD=YEAR: 1972
EXTT0=
EXTT1=
EXTT2=
EXTT3=
EXTT4=
EXTT5=
EXTT6=
EXTT7=
EXTT8=
EXTT9=
EXTT10=
EXTT11=
EXTT12=
EXTT13=
EXTT14=
EXTT15=
EXTT16=
EXTT17=
EXTT18=
EXTT19=
EXTT20=
EXTT21=
EXTT22=
EXTT23=
PLAYORDER=
